<svg width="24" height="24" viewBox="0 0 24 24" fill="none" xmlns="http://www.w3.org/2000/svg">
<g id="Frame" clip-path="url(#clip0_26_31)">
<path id="Vector" fill-rule="evenodd" clip-rule="evenodd" d="M0.749999 9C0.637774 9.00004 0.526989 9.02527 0.425811 9.07383C0.324633 9.12238 0.23564 9.19302 0.165394 9.28054C0.0951469 9.36806 0.0454366 9.47023 0.0199268 9.57952C-0.00558302 9.68881 -0.0062419 9.80242 0.0179987 9.912L2.496 21.063C2.68097 21.8959 3.14441 22.6408 3.80982 23.1747C4.47523 23.7087 5.30283 23.9998 6.156 24H14.844C15.6972 23.9998 16.5248 23.7087 17.1902 23.1747C17.8556 22.6408 18.319 21.8959 18.504 21.063L18.7005 20.178C19.8479 20.3926 21.0338 20.153 22.0078 19.5097C22.9818 18.8664 23.6677 17.8698 23.9208 16.7303C24.1739 15.5907 23.9742 14.3975 23.364 13.4024C22.7538 12.4073 21.7809 11.6882 20.6505 11.397L20.982 9.912C21.0062 9.80242 21.0056 9.68881 20.9801 9.57952C20.9546 9.47023 20.9049 9.36806 20.8346 9.28054C20.7644 9.19302 20.6754 9.12238 20.5742 9.07383C20.473 9.02527 20.3622 9.00004 20.25 9H0.749999ZM19.5 18.75C19.3413 18.75 19.1828 18.7375 19.026 18.7125L20.3265 12.8655C21.0202 13.0664 21.6183 13.5108 22.0109 14.117C22.4035 14.7233 22.5643 15.4507 22.4638 16.166C22.3634 16.8812 22.0084 17.5363 21.464 18.0109C20.9196 18.4855 20.2223 18.748 19.5 18.75ZM3.96 20.7375L1.6845 10.5H19.3155L17.04 20.7375C16.9291 21.2373 16.651 21.6843 16.2518 22.0047C15.8525 22.3252 15.3559 22.4999 14.844 22.5H6.156C5.64406 22.4999 5.14747 22.3252 4.74821 22.0047C4.34896 21.6843 4.07092 21.2373 3.96 20.7375Z" fill="white"/>
<path id="Vector_2" d="M6.6 1.2L6.5955 1.206L6.5745 1.2345C6.46565 1.38488 6.36354 1.54003 6.2685 1.6995C6.1894 1.82828 6.11876 1.96206 6.057 2.1C6.018 2.19 6.006 2.238 6.0015 2.2545V2.2605C6.01845 2.39319 6.06511 2.52034 6.138 2.6325C6.2505 2.832 6.405 3.0405 6.6 3.3L6.615 3.318C6.792 3.555 7.005 3.8385 7.17 4.1325C7.338 4.4325 7.5 4.815 7.5 5.25C7.5 5.532 7.4025 5.802 7.3215 5.991C7.23344 6.19147 7.13222 6.38589 7.0185 6.573C6.9001 6.76924 6.77349 6.96041 6.639 7.146L6.612 7.1835L6.6045 7.1955L6.6015 7.1985C6.48235 7.35783 6.30479 7.4633 6.10788 7.49171C5.91096 7.52012 5.71083 7.46915 5.5515 7.35C5.39217 7.23085 5.2867 7.05329 5.25829 6.85637C5.22988 6.65946 5.28085 6.45933 5.4 6.3L5.4045 6.294L5.4255 6.2655C5.53438 6.11514 5.63649 5.95999 5.7315 5.8005C5.8117 5.67235 5.88239 5.53849 5.943 5.4C5.982 5.31 5.994 5.262 5.9985 5.2455C5.98289 5.11086 5.93671 4.98157 5.8635 4.8675C5.72307 4.63555 5.56827 4.41262 5.4 4.2L5.385 4.182C5.18268 3.92271 4.9973 3.65065 4.83 3.3675C4.6257 3.02959 4.51203 2.64469 4.5 2.25C4.5 1.968 4.5975 1.698 4.6785 1.509C4.767 1.302 4.8795 1.098 4.9815 0.926999C5.09991 0.73076 5.22652 0.539591 5.361 0.353999L5.3985 0.301499C5.51765 0.14217 5.69521 0.0366986 5.89212 0.0082868C6.08904 -0.020125 6.28917 0.0308504 6.4485 0.149999C6.60783 0.269147 6.7133 0.446709 6.74171 0.643622C6.77012 0.840535 6.71915 1.04067 6.6 1.2ZM11.1 1.2L11.0955 1.206L11.0745 1.2345C10.9656 1.38488 10.8635 1.54003 10.7685 1.6995C10.6894 1.82828 10.6188 1.96206 10.557 2.1C10.518 2.19 10.506 2.238 10.5015 2.2545V2.2605C10.5185 2.39319 10.5651 2.52034 10.638 2.6325C10.7505 2.832 10.905 3.0405 11.1 3.3L11.115 3.318C11.292 3.555 11.505 3.8385 11.67 4.1325C11.838 4.4325 12 4.815 12 5.25C12 5.532 11.9025 5.802 11.8215 5.991C11.7334 6.19147 11.6322 6.38589 11.5185 6.573C11.4001 6.76924 11.2735 6.96041 11.139 7.146L11.112 7.1835L11.1045 7.1955L11.1015 7.1985C10.9824 7.35783 10.8048 7.4633 10.6079 7.49171C10.411 7.52012 10.2108 7.46915 10.0515 7.35C9.89217 7.23085 9.7867 7.05329 9.75829 6.85637C9.72988 6.65946 9.78085 6.45933 9.9 6.3L9.9045 6.294L9.9255 6.2655C10.0344 6.11514 10.1365 5.95999 10.2315 5.8005C10.3117 5.67235 10.3824 5.53849 10.443 5.4C10.482 5.31 10.494 5.262 10.4985 5.2455C10.4829 5.11086 10.4367 4.98157 10.3635 4.8675C10.2231 4.63555 10.0683 4.41262 9.9 4.2L9.885 4.182C9.68268 3.92271 9.4973 3.65065 9.33 3.3675C9.12569 3.02959 9.01203 2.64469 9 2.25C9 1.968 9.0975 1.698 9.1785 1.509C9.267 1.302 9.3795 1.098 9.4815 0.926999C9.59991 0.73076 9.72652 0.539591 9.861 0.353999L9.8985 0.301499C10.0176 0.14217 10.1952 0.0366985 10.3921 0.00828679C10.589 -0.020125 10.7892 0.0308504 10.9485 0.149999C11.1078 0.269147 11.2133 0.446709 11.2417 0.643622C11.2701 0.840535 11.2191 1.04067 11.1 1.2ZM15.6 1.2L15.5955 1.206L15.5745 1.2345C15.4655 1.38477 15.3634 1.53993 15.2685 1.6995C15.1894 1.8283 15.1188 1.96208 15.057 2.1C15.018 2.19 15.006 2.238 15.0015 2.2545V2.2605C15.0185 2.39319 15.0651 2.52034 15.138 2.6325C15.2505 2.832 15.405 3.0405 15.6 3.3L15.615 3.318C15.792 3.555 16.005 3.8385 16.17 4.1325C16.338 4.4325 16.5 4.815 16.5 5.25C16.5 5.532 16.4025 5.802 16.3215 5.991C16.2339 6.19169 16.1327 6.38614 16.0185 6.573C15.9007 6.76927 15.7746 6.96044 15.6405 7.146L15.612 7.1835L15.6045 7.1955L15.6015 7.1985C15.4824 7.35783 15.3048 7.4633 15.1079 7.49171C14.911 7.52012 14.7108 7.46915 14.5515 7.35C14.3922 7.23085 14.2867 7.05329 14.2583 6.85637C14.2299 6.65946 14.2809 6.45933 14.4 6.3L14.4045 6.294L14.4255 6.2655C14.5344 6.11514 14.6365 5.95999 14.7315 5.8005C14.8117 5.67235 14.8824 5.53849 14.943 5.4C14.982 5.31 14.994 5.262 14.9985 5.2455C14.9829 5.11086 14.9367 4.98157 14.8635 4.8675C14.7231 4.63555 14.5683 4.41262 14.4 4.2L14.385 4.182C14.1827 3.92271 13.9973 3.65065 13.83 3.3675C13.6257 3.02959 13.512 2.64469 13.5 2.25C13.5 1.968 13.5975 1.698 13.6785 1.509C13.767 1.302 13.8795 1.098 13.9815 0.926999C14.0999 0.73076 14.2265 0.539591 14.361 0.353999L14.3985 0.301499C14.5176 0.14217 14.6952 0.0366985 14.8921 0.00828679C15.089 -0.020125 15.2892 0.0308504 15.4485 0.149999C15.6078 0.269147 15.7133 0.446709 15.7417 0.643622C15.7701 0.840535 15.7191 1.04067 15.6 1.2Z" fill="white"/>
</g>
<defs>
<clipPath id="clip0_26_31">
<rect width="24" height="24" fill="white"/>
</clipPath>
</defs>
</svg>
